<?xml version="1.0" standalone="no"?>
<!DOCTYPE svg PUBLIC "-//W3C//DTD SVG 20010904//EN"
 "http://www.w3.org/TR/2001/REC-SVG-20010904/DTD/svg10.dtd">
<svg version="1.0" xmlns="http://www.w3.org/2000/svg"
 width="600.000000pt" height="287.000000pt" viewBox="0 0 600.000000 287.000000"
 preserveAspectRatio="xMidYMid meet">
<g transform="translate(0.000000,287.000000) scale(0.050000,-0.050000)"
fill="#000000" stroke="none">
<path d="M4176 5702 c-208 -19 -206 -26 17 -89 553 -156 1190 -477 1678 -845
229 -172 231 -170 -99 -89 -1428 349 -3149 121 -4375 -581 -221 -126 -221
-126 95 -89 1132 130 2605 44 3368 -197 l90 -28 -150 -2 c-1609 -22 -3131
-643 -4221 -1722 -170 -167 -588 -659 -573 -673 2 -1 130 59 284 134 1204 588
2474 939 3720 1028 184 13 197 23 -189 -148 -1024 -453 -2007 -1301 -2408
-2075 l-33 -64 235 116 c787 389 1608 675 2530 882 244 54 263 48 146 -50
-277 -232 -583 -684 -751 -1110 l-38 -97 164 76 c1290 595 2765 857 4284 760
288 -18 697 -59 1520 -151 826 -92 1604 -5 2087 234 211 105 478 317 420 335
-571 172 -1280 865 -1953 1910 -573 889 -751 1100 -1234 1465 -85 65 -317 208
-337 208 -6 0 6 -29 26 -65 61 -104 158 -360 189 -498 65 -294 83 -295 -223 5
-1074 1052 -2631 1570 -4269 1420z m5097 -2944 c182 -87 795 -737 743 -789
-25 -24 -462 -32 -596 -10 -451 74 -700 407 -539 723 89 174 157 188 392 76z"/>
</g>
</svg>
